<mxfile host="app.diagrams.net" modified="2021-02-10T04:00:50.301Z" agent="5.0 (Windows)" etag="3CRuCoChRfPit8xbkOCz" version="14.3.0" type="github">
  <diagram id="IkDrsvprRvsSpEMD_L8A" name="Page-1">
    <mxGraphModel dx="1447" dy="752" grid="1" gridSize="10" guides="1" tooltips="1" connect="1" arrows="1" fold="1" page="1" pageScale="1" pageWidth="850" pageHeight="1100" math="0" shadow="0">
      <root>
        <mxCell id="0" />
        <mxCell id="1" parent="0" />
        <mxCell id="DAv7JsDy6ypQYPPPavjS-1" value="" style="points=[];perimeter=orthogonalPerimeter;rounded=0;shadow=0;strokeWidth=1;" vertex="1" parent="1">
          <mxGeometry x="80" y="470" width="10" height="40" as="geometry" />
        </mxCell>
        <mxCell id="DAv7JsDy6ypQYPPPavjS-2" value=":Display" style="shape=umlLifeline;perimeter=lifelinePerimeter;container=0;collapsible=0;recursiveResize=0;rounded=0;shadow=0;strokeWidth=1;" vertex="1" parent="1">
          <mxGeometry x="140" y="80" width="100" height="440" as="geometry" />
        </mxCell>
        <mxCell id="DAv7JsDy6ypQYPPPavjS-3" value=":Measure/SOC" style="shape=umlLifeline;perimeter=lifelinePerimeter;container=1;collapsible=0;recursiveResize=0;rounded=0;shadow=0;strokeWidth=1;" vertex="1" parent="1">
          <mxGeometry x="270" y="80" width="100" height="440" as="geometry" />
        </mxCell>
        <mxCell id="DAv7JsDy6ypQYPPPavjS-4" value="" style="points=[];perimeter=orthogonalPerimeter;rounded=0;shadow=0;strokeWidth=1;" vertex="1" parent="DAv7JsDy6ypQYPPPavjS-3">
          <mxGeometry x="45" y="310" width="10" height="40" as="geometry" />
        </mxCell>
        <mxCell id="DAv7JsDy6ypQYPPPavjS-5" value="next ok" style="verticalAlign=bottom;endArrow=block;shadow=0;strokeWidth=1;" edge="1" parent="1" source="DAv7JsDy6ypQYPPPavjS-7">
          <mxGeometry relative="1" as="geometry">
            <mxPoint x="295" y="160" as="sourcePoint" />
            <mxPoint x="90" y="190" as="targetPoint" />
            <Array as="points">
              <mxPoint x="140" y="190" />
            </Array>
          </mxGeometry>
        </mxCell>
        <mxCell id="DAv7JsDy6ypQYPPPavjS-6" value=":User" style="shape=umlActor;verticalLabelPosition=bottom;verticalAlign=top;html=1;outlineConnect=0;" vertex="1" parent="1">
          <mxGeometry x="70" y="20" width="30" height="60" as="geometry" />
        </mxCell>
        <mxCell id="DAv7JsDy6ypQYPPPavjS-7" value="" style="points=[];perimeter=orthogonalPerimeter;rounded=0;shadow=0;strokeWidth=1;" vertex="1" parent="1">
          <mxGeometry x="185" y="150" width="10" height="40" as="geometry" />
        </mxCell>
        <mxCell id="DAv7JsDy6ypQYPPPavjS-8" value="" style="verticalAlign=bottom;startArrow=none;endArrow=block;startSize=8;shadow=0;strokeWidth=1;startFill=0;exitX=0.467;exitY=0.981;exitDx=0;exitDy=0;exitPerimeter=0;" edge="1" parent="1" source="DAv7JsDy6ypQYPPPavjS-9" target="DAv7JsDy6ypQYPPPavjS-7">
          <mxGeometry x="120" y="80" as="geometry">
            <mxPoint x="105" y="150" as="sourcePoint" />
          </mxGeometry>
        </mxCell>
        <mxCell id="DAv7JsDy6ypQYPPPavjS-9" value="" style="points=[];perimeter=orthogonalPerimeter;rounded=0;shadow=0;strokeWidth=1;" vertex="1" parent="1">
          <mxGeometry x="80" y="110" width="10" height="40" as="geometry" />
        </mxCell>
        <mxCell id="DAv7JsDy6ypQYPPPavjS-10" value="selectNext()" style="text;html=1;align=center;verticalAlign=middle;resizable=0;points=[];autosize=1;" vertex="1" parent="1">
          <mxGeometry x="100" y="130" width="80" height="20" as="geometry" />
        </mxCell>
        <mxCell id="DAv7JsDy6ypQYPPPavjS-11" value="prev ok" style="verticalAlign=bottom;endArrow=block;shadow=0;strokeWidth=1;" edge="1" parent="1" source="DAv7JsDy6ypQYPPPavjS-12">
          <mxGeometry relative="1" as="geometry">
            <mxPoint x="295" y="250" as="sourcePoint" />
            <mxPoint x="90" y="280" as="targetPoint" />
            <Array as="points">
              <mxPoint x="140" y="280" />
            </Array>
          </mxGeometry>
        </mxCell>
        <mxCell id="DAv7JsDy6ypQYPPPavjS-12" value="" style="points=[];perimeter=orthogonalPerimeter;rounded=0;shadow=0;strokeWidth=1;" vertex="1" parent="1">
          <mxGeometry x="185" y="240" width="10" height="40" as="geometry" />
        </mxCell>
        <mxCell id="DAv7JsDy6ypQYPPPavjS-13" value="" style="verticalAlign=bottom;startArrow=none;endArrow=block;startSize=8;shadow=0;strokeWidth=1;startFill=0;exitX=0.467;exitY=0.981;exitDx=0;exitDy=0;exitPerimeter=0;" edge="1" parent="1" source="DAv7JsDy6ypQYPPPavjS-14" target="DAv7JsDy6ypQYPPPavjS-12">
          <mxGeometry x="120" y="170" as="geometry">
            <mxPoint x="105" y="240" as="sourcePoint" />
          </mxGeometry>
        </mxCell>
        <mxCell id="DAv7JsDy6ypQYPPPavjS-14" value="" style="points=[];perimeter=orthogonalPerimeter;rounded=0;shadow=0;strokeWidth=1;" vertex="1" parent="1">
          <mxGeometry x="80" y="200" width="10" height="40" as="geometry" />
        </mxCell>
        <mxCell id="DAv7JsDy6ypQYPPPavjS-15" value="selectPrev()" style="text;html=1;align=center;verticalAlign=middle;resizable=0;points=[];autosize=1;" vertex="1" parent="1">
          <mxGeometry x="100" y="220" width="80" height="20" as="geometry" />
        </mxCell>
        <mxCell id="DAv7JsDy6ypQYPPPavjS-16" value="" style="verticalAlign=bottom;startArrow=none;endArrow=block;startSize=8;shadow=0;strokeWidth=1;startFill=0;exitX=0.467;exitY=0.981;exitDx=0;exitDy=0;exitPerimeter=0;" edge="1" parent="1" source="DAv7JsDy6ypQYPPPavjS-17">
          <mxGeometry x="120" y="280" as="geometry">
            <mxPoint x="105" y="350" as="sourcePoint" />
            <mxPoint x="185" y="350" as="targetPoint" />
          </mxGeometry>
        </mxCell>
        <mxCell id="DAv7JsDy6ypQYPPPavjS-17" value="" style="points=[];perimeter=orthogonalPerimeter;rounded=0;shadow=0;strokeWidth=1;" vertex="1" parent="1">
          <mxGeometry x="80" y="310" width="10" height="40" as="geometry" />
        </mxCell>
        <mxCell id="DAv7JsDy6ypQYPPPavjS-18" value="seeMeasure()" style="text;html=1;align=center;verticalAlign=middle;resizable=0;points=[];autosize=1;" vertex="1" parent="1">
          <mxGeometry x="95" y="330" width="90" height="20" as="geometry" />
        </mxCell>
        <mxCell id="DAv7JsDy6ypQYPPPavjS-19" value="" style="verticalAlign=bottom;startArrow=none;endArrow=block;startSize=8;shadow=0;strokeWidth=1;startFill=0;exitX=1.057;exitY=0.991;exitDx=0;exitDy=0;exitPerimeter=0;entryX=-0.025;entryY=0.013;entryDx=0;entryDy=0;entryPerimeter=0;" edge="1" parent="1" source="DAv7JsDy6ypQYPPPavjS-20" target="DAv7JsDy6ypQYPPPavjS-4">
          <mxGeometry x="225" y="320" as="geometry">
            <mxPoint x="210" y="390" as="sourcePoint" />
            <mxPoint x="290" y="390" as="targetPoint" />
          </mxGeometry>
        </mxCell>
        <mxCell id="DAv7JsDy6ypQYPPPavjS-20" value="" style="points=[];perimeter=orthogonalPerimeter;rounded=0;shadow=0;strokeWidth=1;" vertex="1" parent="1">
          <mxGeometry x="185" y="350" width="10" height="40" as="geometry" />
        </mxCell>
        <mxCell id="DAv7JsDy6ypQYPPPavjS-21" value="validateMeasure()" style="text;html=1;align=center;verticalAlign=middle;resizable=0;points=[];autosize=1;" vertex="1" parent="1">
          <mxGeometry x="195" y="370" width="110" height="20" as="geometry" />
        </mxCell>
        <mxCell id="DAv7JsDy6ypQYPPPavjS-22" value="" style="verticalAlign=bottom;startArrow=none;endArrow=block;startSize=8;shadow=0;strokeWidth=1;startFill=0;exitX=0.467;exitY=0.981;exitDx=0;exitDy=0;exitPerimeter=0;entryX=0.985;entryY=-0.01;entryDx=0;entryDy=0;entryPerimeter=0;" edge="1" parent="1" target="DAv7JsDy6ypQYPPPavjS-23">
          <mxGeometry x="355.33" y="360.76" as="geometry">
            <mxPoint x="320" y="430" as="sourcePoint" />
            <mxPoint x="195" y="450" as="targetPoint" />
          </mxGeometry>
        </mxCell>
        <mxCell id="DAv7JsDy6ypQYPPPavjS-23" value="" style="points=[];perimeter=orthogonalPerimeter;rounded=0;shadow=0;strokeWidth=1;" vertex="1" parent="1">
          <mxGeometry x="185" y="430" width="10" height="40" as="geometry" />
        </mxCell>
        <mxCell id="DAv7JsDy6ypQYPPPavjS-24" value="" style="verticalAlign=bottom;startArrow=none;endArrow=block;startSize=8;shadow=0;strokeWidth=1;startFill=0;entryX=0.984;entryY=0.038;entryDx=0;entryDy=0;entryPerimeter=0;exitX=-0.073;exitY=0.996;exitDx=0;exitDy=0;exitPerimeter=0;" edge="1" parent="1" source="DAv7JsDy6ypQYPPPavjS-23" target="DAv7JsDy6ypQYPPPavjS-1">
          <mxGeometry x="230.32999999999998" y="400.76" as="geometry">
            <mxPoint x="190" y="472" as="sourcePoint" />
            <mxPoint x="90" y="469" as="targetPoint" />
          </mxGeometry>
        </mxCell>
        <mxCell id="DAv7JsDy6ypQYPPPavjS-25" value="" style="endArrow=none;dashed=1;html=1;strokeWidth=1;" edge="1" parent="1">
          <mxGeometry width="50" height="50" relative="1" as="geometry">
            <mxPoint x="85" y="520" as="sourcePoint" />
            <mxPoint x="85" y="150" as="targetPoint" />
          </mxGeometry>
        </mxCell>
        <mxCell id="DAv7JsDy6ypQYPPPavjS-26" value="validate ok" style="text;html=1;align=center;verticalAlign=middle;resizable=0;points=[];autosize=1;" vertex="1" parent="1">
          <mxGeometry x="225" y="410" width="70" height="20" as="geometry" />
        </mxCell>
        <mxCell id="DAv7JsDy6ypQYPPPavjS-27" value="see ok" style="text;html=1;align=center;verticalAlign=middle;resizable=0;points=[];autosize=1;" vertex="1" parent="1">
          <mxGeometry x="115" y="450" width="50" height="20" as="geometry" />
        </mxCell>
        <mxCell id="DAv7JsDy6ypQYPPPavjS-28" value="" style="points=[];perimeter=orthogonalPerimeter;rounded=0;shadow=0;strokeWidth=1;" vertex="1" parent="1">
          <mxGeometry x="50" y="1050" width="10" height="40" as="geometry" />
        </mxCell>
        <mxCell id="DAv7JsDy6ypQYPPPavjS-29" value=":Display" style="shape=umlLifeline;perimeter=lifelinePerimeter;container=0;collapsible=0;recursiveResize=0;rounded=0;shadow=0;strokeWidth=1;" vertex="1" parent="1">
          <mxGeometry x="140" y="660" width="100" height="490" as="geometry" />
        </mxCell>
        <mxCell id="DAv7JsDy6ypQYPPPavjS-30" value=":Alarm" style="shape=umlLifeline;perimeter=lifelinePerimeter;container=1;collapsible=0;recursiveResize=0;rounded=0;shadow=0;strokeWidth=1;" vertex="1" parent="1">
          <mxGeometry x="270" y="660" width="100" height="530" as="geometry" />
        </mxCell>
        <mxCell id="DAv7JsDy6ypQYPPPavjS-31" value="" style="points=[];perimeter=orthogonalPerimeter;rounded=0;shadow=0;strokeWidth=1;" vertex="1" parent="DAv7JsDy6ypQYPPPavjS-30">
          <mxGeometry x="45" y="310" width="10" height="40" as="geometry" />
        </mxCell>
        <mxCell id="DAv7JsDy6ypQYPPPavjS-32" value="next ok" style="verticalAlign=bottom;endArrow=block;shadow=0;strokeWidth=1;" edge="1" parent="1" source="DAv7JsDy6ypQYPPPavjS-34">
          <mxGeometry relative="1" as="geometry">
            <mxPoint x="295" y="740" as="sourcePoint" />
            <mxPoint x="90" y="770" as="targetPoint" />
            <Array as="points">
              <mxPoint x="140" y="770" />
            </Array>
          </mxGeometry>
        </mxCell>
        <mxCell id="DAv7JsDy6ypQYPPPavjS-33" value=":User" style="shape=umlActor;verticalLabelPosition=bottom;verticalAlign=top;html=1;outlineConnect=0;" vertex="1" parent="1">
          <mxGeometry x="70" y="600" width="30" height="60" as="geometry" />
        </mxCell>
        <mxCell id="DAv7JsDy6ypQYPPPavjS-34" value="" style="points=[];perimeter=orthogonalPerimeter;rounded=0;shadow=0;strokeWidth=1;" vertex="1" parent="1">
          <mxGeometry x="185" y="730" width="10" height="40" as="geometry" />
        </mxCell>
        <mxCell id="DAv7JsDy6ypQYPPPavjS-35" value="" style="verticalAlign=bottom;startArrow=none;endArrow=block;startSize=8;shadow=0;strokeWidth=1;startFill=0;exitX=0.467;exitY=0.981;exitDx=0;exitDy=0;exitPerimeter=0;" edge="1" parent="1" source="DAv7JsDy6ypQYPPPavjS-36" target="DAv7JsDy6ypQYPPPavjS-34">
          <mxGeometry x="120" y="660" as="geometry">
            <mxPoint x="105" y="730" as="sourcePoint" />
          </mxGeometry>
        </mxCell>
        <mxCell id="DAv7JsDy6ypQYPPPavjS-36" value="" style="points=[];perimeter=orthogonalPerimeter;rounded=0;shadow=0;strokeWidth=1;" vertex="1" parent="1">
          <mxGeometry x="50" y="690" width="10" height="40" as="geometry" />
        </mxCell>
        <mxCell id="DAv7JsDy6ypQYPPPavjS-37" value="selectNext()" style="text;html=1;align=center;verticalAlign=middle;resizable=0;points=[];autosize=1;" vertex="1" parent="1">
          <mxGeometry x="100" y="710" width="80" height="20" as="geometry" />
        </mxCell>
        <mxCell id="DAv7JsDy6ypQYPPPavjS-38" value="prev ok" style="verticalAlign=bottom;endArrow=block;shadow=0;strokeWidth=1;" edge="1" parent="1" source="DAv7JsDy6ypQYPPPavjS-39">
          <mxGeometry relative="1" as="geometry">
            <mxPoint x="295" y="830" as="sourcePoint" />
            <mxPoint x="90" y="860" as="targetPoint" />
            <Array as="points">
              <mxPoint x="140" y="860" />
            </Array>
          </mxGeometry>
        </mxCell>
        <mxCell id="DAv7JsDy6ypQYPPPavjS-39" value="" style="points=[];perimeter=orthogonalPerimeter;rounded=0;shadow=0;strokeWidth=1;" vertex="1" parent="1">
          <mxGeometry x="185" y="820" width="10" height="40" as="geometry" />
        </mxCell>
        <mxCell id="DAv7JsDy6ypQYPPPavjS-40" value="" style="verticalAlign=bottom;startArrow=none;endArrow=block;startSize=8;shadow=0;strokeWidth=1;startFill=0;exitX=0.467;exitY=0.981;exitDx=0;exitDy=0;exitPerimeter=0;" edge="1" parent="1" source="DAv7JsDy6ypQYPPPavjS-41" target="DAv7JsDy6ypQYPPPavjS-39">
          <mxGeometry x="120" y="750" as="geometry">
            <mxPoint x="105" y="820" as="sourcePoint" />
          </mxGeometry>
        </mxCell>
        <mxCell id="DAv7JsDy6ypQYPPPavjS-41" value="" style="points=[];perimeter=orthogonalPerimeter;rounded=0;shadow=0;strokeWidth=1;" vertex="1" parent="1">
          <mxGeometry x="50" y="780" width="10" height="40" as="geometry" />
        </mxCell>
        <mxCell id="DAv7JsDy6ypQYPPPavjS-42" value="selectPrev()" style="text;html=1;align=center;verticalAlign=middle;resizable=0;points=[];autosize=1;" vertex="1" parent="1">
          <mxGeometry x="100" y="800" width="80" height="20" as="geometry" />
        </mxCell>
        <mxCell id="DAv7JsDy6ypQYPPPavjS-43" value="" style="verticalAlign=bottom;startArrow=none;endArrow=block;startSize=8;shadow=0;strokeWidth=1;startFill=0;exitX=0.467;exitY=0.981;exitDx=0;exitDy=0;exitPerimeter=0;" edge="1" parent="1" source="DAv7JsDy6ypQYPPPavjS-44">
          <mxGeometry x="120" y="860" as="geometry">
            <mxPoint x="105" y="930" as="sourcePoint" />
            <mxPoint x="185" y="930" as="targetPoint" />
          </mxGeometry>
        </mxCell>
        <mxCell id="DAv7JsDy6ypQYPPPavjS-44" value="" style="points=[];perimeter=orthogonalPerimeter;rounded=0;shadow=0;strokeWidth=1;" vertex="1" parent="1">
          <mxGeometry x="50" y="890" width="10" height="40" as="geometry" />
        </mxCell>
        <mxCell id="DAv7JsDy6ypQYPPPavjS-45" value="seeAlarm()" style="text;html=1;align=center;verticalAlign=middle;resizable=0;points=[];autosize=1;" vertex="1" parent="1">
          <mxGeometry x="105" y="910" width="70" height="20" as="geometry" />
        </mxCell>
        <mxCell id="DAv7JsDy6ypQYPPPavjS-46" value="" style="verticalAlign=bottom;startArrow=none;endArrow=block;startSize=8;shadow=0;strokeWidth=1;startFill=0;exitX=1.057;exitY=0.991;exitDx=0;exitDy=0;exitPerimeter=0;entryX=-0.025;entryY=0.013;entryDx=0;entryDy=0;entryPerimeter=0;" edge="1" parent="1" source="DAv7JsDy6ypQYPPPavjS-47" target="DAv7JsDy6ypQYPPPavjS-31">
          <mxGeometry x="225" y="900" as="geometry">
            <mxPoint x="210" y="970" as="sourcePoint" />
            <mxPoint x="290" y="970" as="targetPoint" />
          </mxGeometry>
        </mxCell>
        <mxCell id="DAv7JsDy6ypQYPPPavjS-47" value="" style="points=[];perimeter=orthogonalPerimeter;rounded=0;shadow=0;strokeWidth=1;" vertex="1" parent="1">
          <mxGeometry x="185" y="930" width="10" height="40" as="geometry" />
        </mxCell>
        <mxCell id="DAv7JsDy6ypQYPPPavjS-48" value="validateAlarm()" style="text;html=1;align=center;verticalAlign=middle;resizable=0;points=[];autosize=1;" vertex="1" parent="1">
          <mxGeometry x="200" y="950" width="100" height="20" as="geometry" />
        </mxCell>
        <mxCell id="DAv7JsDy6ypQYPPPavjS-49" value="" style="verticalAlign=bottom;startArrow=none;endArrow=block;startSize=8;shadow=0;strokeWidth=1;startFill=0;exitX=0.467;exitY=0.981;exitDx=0;exitDy=0;exitPerimeter=0;entryX=0.985;entryY=-0.01;entryDx=0;entryDy=0;entryPerimeter=0;" edge="1" parent="1" target="DAv7JsDy6ypQYPPPavjS-50">
          <mxGeometry x="355.33" y="940.76" as="geometry">
            <mxPoint x="320" y="1010" as="sourcePoint" />
            <mxPoint x="195" y="1030" as="targetPoint" />
          </mxGeometry>
        </mxCell>
        <mxCell id="DAv7JsDy6ypQYPPPavjS-50" value="" style="points=[];perimeter=orthogonalPerimeter;rounded=0;shadow=0;strokeWidth=1;" vertex="1" parent="1">
          <mxGeometry x="185" y="1010" width="10" height="40" as="geometry" />
        </mxCell>
        <mxCell id="DAv7JsDy6ypQYPPPavjS-51" value="" style="verticalAlign=bottom;startArrow=none;endArrow=block;startSize=8;shadow=0;strokeWidth=1;startFill=0;entryX=0.984;entryY=0.038;entryDx=0;entryDy=0;entryPerimeter=0;exitX=-0.073;exitY=0.996;exitDx=0;exitDy=0;exitPerimeter=0;" edge="1" parent="1" source="DAv7JsDy6ypQYPPPavjS-50" target="DAv7JsDy6ypQYPPPavjS-28">
          <mxGeometry x="230.32999999999998" y="980.76" as="geometry">
            <mxPoint x="190" y="1052" as="sourcePoint" />
            <mxPoint x="90" y="1049" as="targetPoint" />
          </mxGeometry>
        </mxCell>
        <mxCell id="DAv7JsDy6ypQYPPPavjS-52" value="" style="endArrow=none;dashed=1;html=1;strokeWidth=1;" edge="1" parent="1">
          <mxGeometry width="50" height="50" relative="1" as="geometry">
            <mxPoint x="55" y="1270" as="sourcePoint" />
            <mxPoint x="55" y="730" as="targetPoint" />
          </mxGeometry>
        </mxCell>
        <mxCell id="DAv7JsDy6ypQYPPPavjS-53" value="validate ok" style="text;html=1;align=center;verticalAlign=middle;resizable=0;points=[];autosize=1;" vertex="1" parent="1">
          <mxGeometry x="225" y="990" width="70" height="20" as="geometry" />
        </mxCell>
        <mxCell id="DAv7JsDy6ypQYPPPavjS-54" value="Update alarm" style="text;html=1;align=center;verticalAlign=middle;resizable=0;points=[];autosize=1;" vertex="1" parent="1">
          <mxGeometry x="80" y="1030" width="90" height="20" as="geometry" />
        </mxCell>
        <mxCell id="DAv7JsDy6ypQYPPPavjS-55" value="" style="points=[];perimeter=orthogonalPerimeter;rounded=0;shadow=0;strokeWidth=1;" vertex="1" parent="1">
          <mxGeometry x="80" y="1830" width="10" height="40" as="geometry" />
        </mxCell>
        <mxCell id="DAv7JsDy6ypQYPPPavjS-56" value=":Display" style="shape=umlLifeline;perimeter=lifelinePerimeter;container=0;collapsible=0;recursiveResize=0;rounded=0;shadow=0;strokeWidth=1;" vertex="1" parent="1">
          <mxGeometry x="140" y="1440" width="100" height="630" as="geometry" />
        </mxCell>
        <mxCell id="DAv7JsDy6ypQYPPPavjS-57" value=":Contactor" style="shape=umlLifeline;perimeter=lifelinePerimeter;container=1;collapsible=0;recursiveResize=0;rounded=0;shadow=0;strokeWidth=1;" vertex="1" parent="1">
          <mxGeometry x="270" y="1440" width="100" height="630" as="geometry" />
        </mxCell>
        <mxCell id="DAv7JsDy6ypQYPPPavjS-58" value="" style="points=[];perimeter=orthogonalPerimeter;rounded=0;shadow=0;strokeWidth=1;" vertex="1" parent="DAv7JsDy6ypQYPPPavjS-57">
          <mxGeometry x="45" y="310" width="10" height="40" as="geometry" />
        </mxCell>
        <mxCell id="DAv7JsDy6ypQYPPPavjS-59" value="next ok" style="verticalAlign=bottom;endArrow=block;shadow=0;strokeWidth=1;" edge="1" parent="1" source="DAv7JsDy6ypQYPPPavjS-61">
          <mxGeometry relative="1" as="geometry">
            <mxPoint x="295" y="1520" as="sourcePoint" />
            <mxPoint x="90" y="1550" as="targetPoint" />
            <Array as="points">
              <mxPoint x="140" y="1550" />
            </Array>
          </mxGeometry>
        </mxCell>
        <mxCell id="DAv7JsDy6ypQYPPPavjS-60" value=":User" style="shape=umlActor;verticalLabelPosition=bottom;verticalAlign=top;html=1;outlineConnect=0;" vertex="1" parent="1">
          <mxGeometry x="70" y="1380" width="30" height="60" as="geometry" />
        </mxCell>
        <mxCell id="DAv7JsDy6ypQYPPPavjS-61" value="" style="points=[];perimeter=orthogonalPerimeter;rounded=0;shadow=0;strokeWidth=1;" vertex="1" parent="1">
          <mxGeometry x="185" y="1510" width="10" height="40" as="geometry" />
        </mxCell>
        <mxCell id="DAv7JsDy6ypQYPPPavjS-62" value="" style="verticalAlign=bottom;startArrow=none;endArrow=block;startSize=8;shadow=0;strokeWidth=1;startFill=0;exitX=0.467;exitY=0.981;exitDx=0;exitDy=0;exitPerimeter=0;" edge="1" parent="1" source="DAv7JsDy6ypQYPPPavjS-63" target="DAv7JsDy6ypQYPPPavjS-61">
          <mxGeometry x="120" y="1440" as="geometry">
            <mxPoint x="105" y="1510" as="sourcePoint" />
          </mxGeometry>
        </mxCell>
        <mxCell id="DAv7JsDy6ypQYPPPavjS-63" value="" style="points=[];perimeter=orthogonalPerimeter;rounded=0;shadow=0;strokeWidth=1;" vertex="1" parent="1">
          <mxGeometry x="80" y="1470" width="10" height="40" as="geometry" />
        </mxCell>
        <mxCell id="DAv7JsDy6ypQYPPPavjS-64" value="selectNext()" style="text;html=1;align=center;verticalAlign=middle;resizable=0;points=[];autosize=1;" vertex="1" parent="1">
          <mxGeometry x="100" y="1490" width="80" height="20" as="geometry" />
        </mxCell>
        <mxCell id="DAv7JsDy6ypQYPPPavjS-65" value="prev ok" style="verticalAlign=bottom;endArrow=block;shadow=0;strokeWidth=1;" edge="1" parent="1" source="DAv7JsDy6ypQYPPPavjS-66">
          <mxGeometry relative="1" as="geometry">
            <mxPoint x="295" y="1610" as="sourcePoint" />
            <mxPoint x="90" y="1640" as="targetPoint" />
            <Array as="points">
              <mxPoint x="140" y="1640" />
            </Array>
          </mxGeometry>
        </mxCell>
        <mxCell id="DAv7JsDy6ypQYPPPavjS-66" value="" style="points=[];perimeter=orthogonalPerimeter;rounded=0;shadow=0;strokeWidth=1;" vertex="1" parent="1">
          <mxGeometry x="185" y="1600" width="10" height="40" as="geometry" />
        </mxCell>
        <mxCell id="DAv7JsDy6ypQYPPPavjS-67" value="" style="verticalAlign=bottom;startArrow=none;endArrow=block;startSize=8;shadow=0;strokeWidth=1;startFill=0;exitX=0.467;exitY=0.981;exitDx=0;exitDy=0;exitPerimeter=0;" edge="1" parent="1" source="DAv7JsDy6ypQYPPPavjS-68" target="DAv7JsDy6ypQYPPPavjS-66">
          <mxGeometry x="120" y="1530" as="geometry">
            <mxPoint x="105" y="1600" as="sourcePoint" />
          </mxGeometry>
        </mxCell>
        <mxCell id="DAv7JsDy6ypQYPPPavjS-68" value="" style="points=[];perimeter=orthogonalPerimeter;rounded=0;shadow=0;strokeWidth=1;" vertex="1" parent="1">
          <mxGeometry x="80" y="1550" width="10" height="50" as="geometry" />
        </mxCell>
        <mxCell id="DAv7JsDy6ypQYPPPavjS-69" value="selectPrev()" style="text;html=1;align=center;verticalAlign=middle;resizable=0;points=[];autosize=1;" vertex="1" parent="1">
          <mxGeometry x="100" y="1580" width="80" height="20" as="geometry" />
        </mxCell>
        <mxCell id="DAv7JsDy6ypQYPPPavjS-70" value="" style="verticalAlign=bottom;startArrow=none;endArrow=block;startSize=8;shadow=0;strokeWidth=1;startFill=0;exitX=0.467;exitY=0.981;exitDx=0;exitDy=0;exitPerimeter=0;" edge="1" parent="1" source="DAv7JsDy6ypQYPPPavjS-71">
          <mxGeometry x="120" y="1640" as="geometry">
            <mxPoint x="105" y="1710" as="sourcePoint" />
            <mxPoint x="185" y="1710" as="targetPoint" />
          </mxGeometry>
        </mxCell>
        <mxCell id="DAv7JsDy6ypQYPPPavjS-71" value="" style="points=[];perimeter=orthogonalPerimeter;rounded=0;shadow=0;strokeWidth=1;" vertex="1" parent="1">
          <mxGeometry x="80" y="1640" width="10" height="70" as="geometry" />
        </mxCell>
        <mxCell id="DAv7JsDy6ypQYPPPavjS-72" value="seeBattery()" style="text;html=1;align=center;verticalAlign=middle;resizable=0;points=[];autosize=1;" vertex="1" parent="1">
          <mxGeometry x="100" y="1690" width="80" height="20" as="geometry" />
        </mxCell>
        <mxCell id="DAv7JsDy6ypQYPPPavjS-73" value="" style="verticalAlign=bottom;startArrow=none;endArrow=block;startSize=8;shadow=0;strokeWidth=1;startFill=0;exitX=1.057;exitY=0.991;exitDx=0;exitDy=0;exitPerimeter=0;entryX=-0.025;entryY=0.013;entryDx=0;entryDy=0;entryPerimeter=0;" edge="1" parent="1" source="DAv7JsDy6ypQYPPPavjS-74" target="DAv7JsDy6ypQYPPPavjS-58">
          <mxGeometry x="225" y="1680" as="geometry">
            <mxPoint x="210" y="1750" as="sourcePoint" />
            <mxPoint x="290" y="1750" as="targetPoint" />
          </mxGeometry>
        </mxCell>
        <mxCell id="DAv7JsDy6ypQYPPPavjS-74" value="" style="points=[];perimeter=orthogonalPerimeter;rounded=0;shadow=0;strokeWidth=1;" vertex="1" parent="1">
          <mxGeometry x="185" y="1710" width="10" height="40" as="geometry" />
        </mxCell>
        <mxCell id="DAv7JsDy6ypQYPPPavjS-75" value="validateStatus()" style="text;html=1;align=center;verticalAlign=middle;resizable=0;points=[];autosize=1;" vertex="1" parent="1">
          <mxGeometry x="200" y="1730" width="100" height="20" as="geometry" />
        </mxCell>
        <mxCell id="DAv7JsDy6ypQYPPPavjS-76" value="" style="verticalAlign=bottom;startArrow=none;endArrow=block;startSize=8;shadow=0;strokeWidth=1;startFill=0;exitX=0.467;exitY=0.981;exitDx=0;exitDy=0;exitPerimeter=0;entryX=0.985;entryY=-0.01;entryDx=0;entryDy=0;entryPerimeter=0;" edge="1" parent="1" target="DAv7JsDy6ypQYPPPavjS-77">
          <mxGeometry x="355.33" y="1720.76" as="geometry">
            <mxPoint x="320" y="1790" as="sourcePoint" />
            <mxPoint x="195" y="1810" as="targetPoint" />
          </mxGeometry>
        </mxCell>
        <mxCell id="DAv7JsDy6ypQYPPPavjS-77" value="" style="points=[];perimeter=orthogonalPerimeter;rounded=0;shadow=0;strokeWidth=1;" vertex="1" parent="1">
          <mxGeometry x="185" y="1790" width="10" height="40" as="geometry" />
        </mxCell>
        <mxCell id="DAv7JsDy6ypQYPPPavjS-78" value="" style="verticalAlign=bottom;startArrow=none;endArrow=block;startSize=8;shadow=0;strokeWidth=1;startFill=0;entryX=0.984;entryY=0.038;entryDx=0;entryDy=0;entryPerimeter=0;exitX=-0.073;exitY=0.996;exitDx=0;exitDy=0;exitPerimeter=0;" edge="1" parent="1" source="DAv7JsDy6ypQYPPPavjS-77" target="DAv7JsDy6ypQYPPPavjS-55">
          <mxGeometry x="230.32999999999998" y="1760.76" as="geometry">
            <mxPoint x="190" y="1832" as="sourcePoint" />
            <mxPoint x="90" y="1829" as="targetPoint" />
          </mxGeometry>
        </mxCell>
        <mxCell id="DAv7JsDy6ypQYPPPavjS-79" value="" style="endArrow=none;dashed=1;html=1;strokeWidth=1;" edge="1" parent="1">
          <mxGeometry width="50" height="50" relative="1" as="geometry">
            <mxPoint x="85" y="2070" as="sourcePoint" />
            <mxPoint x="85" y="1510" as="targetPoint" />
          </mxGeometry>
        </mxCell>
        <mxCell id="DAv7JsDy6ypQYPPPavjS-80" value="validate ok" style="text;html=1;align=center;verticalAlign=middle;resizable=0;points=[];autosize=1;" vertex="1" parent="1">
          <mxGeometry x="225" y="1770" width="70" height="20" as="geometry" />
        </mxCell>
        <mxCell id="DAv7JsDy6ypQYPPPavjS-81" value="see ok" style="text;html=1;align=center;verticalAlign=middle;resizable=0;points=[];autosize=1;" vertex="1" parent="1">
          <mxGeometry x="115" y="1810" width="50" height="20" as="geometry" />
        </mxCell>
        <mxCell id="DAv7JsDy6ypQYPPPavjS-82" value="" style="points=[];perimeter=orthogonalPerimeter;rounded=0;shadow=0;strokeWidth=1;" vertex="1" parent="1">
          <mxGeometry x="80" y="1990" width="10" height="40" as="geometry" />
        </mxCell>
        <mxCell id="DAv7JsDy6ypQYPPPavjS-83" value="" style="points=[];perimeter=orthogonalPerimeter;rounded=0;shadow=0;strokeWidth=1;" vertex="1" parent="1">
          <mxGeometry x="315" y="1910" width="10" height="40" as="geometry" />
        </mxCell>
        <mxCell id="DAv7JsDy6ypQYPPPavjS-84" value="" style="verticalAlign=bottom;startArrow=none;endArrow=block;startSize=8;shadow=0;strokeWidth=1;startFill=0;exitX=0.467;exitY=0.981;exitDx=0;exitDy=0;exitPerimeter=0;" edge="1" parent="1">
          <mxGeometry x="120" y="1800" as="geometry">
            <mxPoint x="84.67000000000007" y="1868.67" as="sourcePoint" />
            <mxPoint x="185" y="1870" as="targetPoint" />
          </mxGeometry>
        </mxCell>
        <mxCell id="DAv7JsDy6ypQYPPPavjS-85" value="selectToggle()" style="text;html=1;align=center;verticalAlign=middle;resizable=0;points=[];autosize=1;" vertex="1" parent="1">
          <mxGeometry x="95" y="1850" width="90" height="20" as="geometry" />
        </mxCell>
        <mxCell id="DAv7JsDy6ypQYPPPavjS-86" value="" style="verticalAlign=bottom;startArrow=none;endArrow=block;startSize=8;shadow=0;strokeWidth=1;startFill=0;exitX=1.057;exitY=0.991;exitDx=0;exitDy=0;exitPerimeter=0;entryX=-0.025;entryY=0.013;entryDx=0;entryDy=0;entryPerimeter=0;" edge="1" parent="1" source="DAv7JsDy6ypQYPPPavjS-87" target="DAv7JsDy6ypQYPPPavjS-83">
          <mxGeometry x="225" y="1840" as="geometry">
            <mxPoint x="210" y="1910" as="sourcePoint" />
            <mxPoint x="290" y="1910" as="targetPoint" />
          </mxGeometry>
        </mxCell>
        <mxCell id="DAv7JsDy6ypQYPPPavjS-87" value="" style="points=[];perimeter=orthogonalPerimeter;rounded=0;shadow=0;strokeWidth=1;" vertex="1" parent="1">
          <mxGeometry x="185" y="1870" width="10" height="40" as="geometry" />
        </mxCell>
        <mxCell id="DAv7JsDy6ypQYPPPavjS-88" value="validateToggle()" style="text;html=1;align=center;verticalAlign=middle;resizable=0;points=[];autosize=1;" vertex="1" parent="1">
          <mxGeometry x="200" y="1890" width="100" height="20" as="geometry" />
        </mxCell>
        <mxCell id="DAv7JsDy6ypQYPPPavjS-89" value="" style="verticalAlign=bottom;startArrow=none;endArrow=block;startSize=8;shadow=0;strokeWidth=1;startFill=0;exitX=0.467;exitY=0.981;exitDx=0;exitDy=0;exitPerimeter=0;entryX=0.985;entryY=-0.01;entryDx=0;entryDy=0;entryPerimeter=0;" edge="1" parent="1" target="DAv7JsDy6ypQYPPPavjS-90">
          <mxGeometry x="355.33" y="1880.76" as="geometry">
            <mxPoint x="320" y="1950" as="sourcePoint" />
            <mxPoint x="195" y="1970" as="targetPoint" />
          </mxGeometry>
        </mxCell>
        <mxCell id="DAv7JsDy6ypQYPPPavjS-90" value="" style="points=[];perimeter=orthogonalPerimeter;rounded=0;shadow=0;strokeWidth=1;" vertex="1" parent="1">
          <mxGeometry x="185" y="1950" width="10" height="40" as="geometry" />
        </mxCell>
        <mxCell id="DAv7JsDy6ypQYPPPavjS-91" value="" style="verticalAlign=bottom;startArrow=none;endArrow=block;startSize=8;shadow=0;strokeWidth=1;startFill=0;entryX=0.984;entryY=0.038;entryDx=0;entryDy=0;entryPerimeter=0;exitX=-0.073;exitY=0.996;exitDx=0;exitDy=0;exitPerimeter=0;" edge="1" parent="1" source="DAv7JsDy6ypQYPPPavjS-90" target="DAv7JsDy6ypQYPPPavjS-82">
          <mxGeometry x="230.32999999999998" y="1920.76" as="geometry">
            <mxPoint x="190" y="1992" as="sourcePoint" />
            <mxPoint x="90" y="1989" as="targetPoint" />
          </mxGeometry>
        </mxCell>
        <mxCell id="DAv7JsDy6ypQYPPPavjS-92" value="validate ok" style="text;html=1;align=center;verticalAlign=middle;resizable=0;points=[];autosize=1;" vertex="1" parent="1">
          <mxGeometry x="225" y="1930" width="70" height="20" as="geometry" />
        </mxCell>
        <mxCell id="DAv7JsDy6ypQYPPPavjS-93" value="toggle ok" style="text;html=1;align=center;verticalAlign=middle;resizable=0;points=[];autosize=1;" vertex="1" parent="1">
          <mxGeometry x="110" y="1970" width="60" height="20" as="geometry" />
        </mxCell>
        <mxCell id="DAv7JsDy6ypQYPPPavjS-94" value="" style="points=[];perimeter=orthogonalPerimeter;rounded=0;shadow=0;strokeWidth=1;" vertex="1" parent="1">
          <mxGeometry x="50" y="1270" width="10" height="40" as="geometry" />
        </mxCell>
        <mxCell id="DAv7JsDy6ypQYPPPavjS-95" value="" style="points=[];perimeter=orthogonalPerimeter;rounded=0;shadow=0;strokeWidth=1;" vertex="1" parent="1">
          <mxGeometry x="315" y="1190" width="10" height="40" as="geometry" />
        </mxCell>
        <mxCell id="DAv7JsDy6ypQYPPPavjS-96" value="" style="verticalAlign=bottom;startArrow=none;endArrow=block;startSize=8;shadow=0;strokeWidth=1;startFill=0;exitX=0.467;exitY=0.981;exitDx=0;exitDy=0;exitPerimeter=0;" edge="1" parent="1" source="DAv7JsDy6ypQYPPPavjS-97">
          <mxGeometry x="120" y="1080" as="geometry">
            <mxPoint x="105" y="1150" as="sourcePoint" />
            <mxPoint x="185" y="1150" as="targetPoint" />
          </mxGeometry>
        </mxCell>
        <mxCell id="DAv7JsDy6ypQYPPPavjS-97" value="" style="points=[];perimeter=orthogonalPerimeter;rounded=0;shadow=0;strokeWidth=1;" vertex="1" parent="1">
          <mxGeometry x="50" y="1110" width="10" height="40" as="geometry" />
        </mxCell>
        <mxCell id="DAv7JsDy6ypQYPPPavjS-98" value="acknowledge alarm" style="text;html=1;align=center;verticalAlign=middle;resizable=0;points=[];autosize=1;" vertex="1" parent="1">
          <mxGeometry x="60" y="1130" width="120" height="20" as="geometry" />
        </mxCell>
        <mxCell id="DAv7JsDy6ypQYPPPavjS-99" value="" style="verticalAlign=bottom;startArrow=none;endArrow=block;startSize=8;shadow=0;strokeWidth=1;startFill=0;exitX=1.057;exitY=0.991;exitDx=0;exitDy=0;exitPerimeter=0;entryX=-0.025;entryY=0.013;entryDx=0;entryDy=0;entryPerimeter=0;" edge="1" parent="1" source="DAv7JsDy6ypQYPPPavjS-100" target="DAv7JsDy6ypQYPPPavjS-95">
          <mxGeometry x="225" y="1120" as="geometry">
            <mxPoint x="210" y="1190" as="sourcePoint" />
            <mxPoint x="290" y="1190" as="targetPoint" />
          </mxGeometry>
        </mxCell>
        <mxCell id="DAv7JsDy6ypQYPPPavjS-100" value="" style="points=[];perimeter=orthogonalPerimeter;rounded=0;shadow=0;strokeWidth=1;" vertex="1" parent="1">
          <mxGeometry x="185" y="1150" width="10" height="40" as="geometry" />
        </mxCell>
        <mxCell id="DAv7JsDy6ypQYPPPavjS-101" value="alarm ok" style="text;html=1;align=center;verticalAlign=middle;resizable=0;points=[];autosize=1;" vertex="1" parent="1">
          <mxGeometry x="220" y="1170" width="60" height="20" as="geometry" />
        </mxCell>
        <mxCell id="DAv7JsDy6ypQYPPPavjS-102" value="" style="verticalAlign=bottom;startArrow=none;endArrow=block;startSize=8;shadow=0;strokeWidth=1;startFill=0;exitX=0.467;exitY=0.981;exitDx=0;exitDy=0;exitPerimeter=0;entryX=0.985;entryY=-0.01;entryDx=0;entryDy=0;entryPerimeter=0;" edge="1" parent="1" target="DAv7JsDy6ypQYPPPavjS-103">
          <mxGeometry x="355.33" y="1160.76" as="geometry">
            <mxPoint x="320" y="1230" as="sourcePoint" />
            <mxPoint x="195" y="1250" as="targetPoint" />
          </mxGeometry>
        </mxCell>
        <mxCell id="DAv7JsDy6ypQYPPPavjS-103" value="" style="points=[];perimeter=orthogonalPerimeter;rounded=0;shadow=0;strokeWidth=1;" vertex="1" parent="1">
          <mxGeometry x="185" y="1230" width="10" height="40" as="geometry" />
        </mxCell>
        <mxCell id="DAv7JsDy6ypQYPPPavjS-104" value="" style="verticalAlign=bottom;startArrow=none;endArrow=block;startSize=8;shadow=0;strokeWidth=1;startFill=0;entryX=0.984;entryY=0.038;entryDx=0;entryDy=0;entryPerimeter=0;exitX=-0.073;exitY=0.996;exitDx=0;exitDy=0;exitPerimeter=0;" edge="1" parent="1" source="DAv7JsDy6ypQYPPPavjS-103" target="DAv7JsDy6ypQYPPPavjS-94">
          <mxGeometry x="230.32999999999998" y="1200.76" as="geometry">
            <mxPoint x="190" y="1272" as="sourcePoint" />
            <mxPoint x="90" y="1269" as="targetPoint" />
          </mxGeometry>
        </mxCell>
        <mxCell id="DAv7JsDy6ypQYPPPavjS-105" value="see ok" style="text;html=1;align=center;verticalAlign=middle;resizable=0;points=[];autosize=1;" vertex="1" parent="1">
          <mxGeometry x="235" y="1210" width="50" height="20" as="geometry" />
        </mxCell>
      </root>
    </mxGraphModel>
  </diagram>
</mxfile>
